<svg xmlns="http://www.w3.org/2000/svg" id="svg4" width="1792" height="1792" version="1.1" viewBox="0 0 1792 1792"><metadata id="metadata10"/><path id="path2" d="m 1428.0678,463.18644 q 0,-40 -28,-68 -28,-28 -68,-28 -40,0 -68,28 -28,28 -28,68 0,40 28,68 28,28 68,28 40,0 68,-28 28,-28 28,-68 z m 224,-288 q 0,249 -75.5,430.5 -75.5,181.5 -253.5,360.5 -81,80.00006 -195,176.00006 l -20,379 q -2,16 -16,26 l -384,224 q -7,4 -16,4 -12,0 -23,-9 l -64,-64 q -13,-14 -8,-32 l 85,-276 -281,-281 -276,85 q -3,1 -9,1 -14,0 -23.000004,-9 l -64,-64 q -16.999999,-19 -5,-39 L 248.0678,703.18644 q 10,-14 26,-16 l 379,-20 q 96,-114 176,-195 188,-187 358,-258 170,-71 431,-71 14,0 24,9.5 10,9.5 10,22.5 z" style="fill:#000;fill-opacity:1"/></svg>